<?xml version="1.0" encoding="utf-8"?>
<!-- Generator: Adobe Illustrator 19.0.0, SVG Export Plug-In . SVG Version: 6.00 Build 0)  -->
<svg version="1.1" id="Layer_1" xmlns="http://www.w3.org/2000/svg" xmlns:xlink="http://www.w3.org/1999/xlink" x="0px" y="0px"
	 viewBox="-285 408.9 24 24" style="enable-background:new -285 408.9 24 24;" xml:space="preserve">
<style type="text/css">
	.st0{fill:#6B6B6A;}
	.st1{fill:none;}
</style>
<path class="st0" d="M-269.5,422.9h-0.8l-0.3-0.3c1-1.1,1.6-2.6,1.6-4.2c0-3.6-2.9-6.5-6.5-6.5s-6.5,2.9-6.5,6.5
	c0,3.6,2.9,6.5,6.5,6.5c1.6,0,3.1-0.6,4.2-1.6l0.3,0.3v0.8l5,5l1.5-1.5L-269.5,422.9z M-275.5,422.9c-2.5,0-4.5-2-4.5-4.5
	c0-2.5,2-4.5,4.5-4.5s4.5,2,4.5,4.5C-271,420.9-273,422.9-275.5,422.9z"/>
<path class="st1" d="M-285,408.9h24v24h-24V408.9z"/>
</svg>
